<?xml version="1.0" standalone="no"?>
<!DOCTYPE svg PUBLIC "-//W3C//DTD SVG 20010904//EN"
 "http://www.w3.org/TR/2001/REC-SVG-20010904/DTD/svg10.dtd">
<svg version="1.0" xmlns="http://www.w3.org/2000/svg"
 width="1563.000000pt" height="1563.000000pt" viewBox="0 0 1563.000000 1563.000000"
 preserveAspectRatio="xMidYMid meet">
<metadata>
Created by potrace 1.14, written by Peter Selinger 2001-2017
</metadata>
<g transform="translate(0.000000,1563.000000) scale(0.100000,-0.100000)"
fill="#000000" stroke="none">
<path d="M7657 13864 c-1 -1 -244 -15 -304 -17 -8 0 -13 -14 -13 -32 0 -30 3
-33 40 -39 51 -8 51 -8 66 -306 13 -273 13 -280 -25 -280 -31 0 -50 -23 -44
-52 5 -26 8 -27 52 -23 25 2 108 6 183 10 165 8 186 10 252 29 133 39 240 154
264 282 35 198 -67 363 -257 414 -37 10 -206 21 -214 14z m151 -106 c83 -40
134 -146 137 -288 2 -41 -3 -95 -11 -119 -16 -53 -65 -106 -113 -122 -33 -11
-177 -17 -185 -8 -7 7 -22 245 -31 466 l-3 92 32 4 c54 8 130 -3 174 -25z"/>
<path d="M8666 13837 c-10 -39 -7 -45 29 -57 31 -10 37 -17 37 -40 0 -46 -23
-209 -68 -488 -8 -49 -10 -51 -53 -54 -36 -3 -45 -12 -47 -45 -1 -24 1 -24 99
-38 80 -11 115 -16 182 -26 39 -6 79 -12 90 -13 11 -2 66 -11 123 -21 56 -10
104 -16 105 -14 2 2 20 44 42 92 39 91 39 101 -5 111 -22 5 -31 -2 -65 -49
l-40 -55 -65 5 c-78 6 -130 14 -167 24 -31 9 -31 9 -19 129 8 74 19 128 27
126 2 -1 31 -4 64 -8 106 -13 105 -13 105 -62 0 -35 4 -44 18 -45 9 0 25 -2
34 -4 18 -3 18 -5 43 175 11 78 11 80 -29 80 -31 0 -34 -3 -40 -34 -8 -41 -20
-45 -96 -33 -92 15 -99 17 -95 30 2 6 7 30 10 52 9 64 26 159 30 166 3 3 30 2
62 -2 32 -5 75 -11 96 -14 57 -7 74 -20 82 -62 11 -58 20 -70 58 -71 l35 -1
-5 92 c-2 50 -5 92 -6 93 -2 2 -21 5 -137 19 -19 2 -53 7 -75 10 -22 4 -52 8
-67 11 -16 2 -40 6 -55 8 -16 3 -64 10 -108 16 -44 6 -90 13 -101 15 -16 4
-23 -1 -28 -18z"/>
<path d="M10097 13520 c-20 -4 -39 -9 -40 -11 -8 -10 -251 -285 -256 -289 -7
-6 -129 -144 -157 -177 -13 -16 -29 -23 -55 -23 -24 0 -39 -5 -43 -16 -16 -42
-8 -48 105 -87 61 -21 112 -37 113 -35 1 2 7 14 13 28 10 23 7 28 -23 48 l-34
22 41 55 c23 30 43 55 44 55 11 0 212 -74 221 -81 6 -5 12 -39 13 -75 l2 -66
-33 3 c-42 4 -58 -6 -58 -35 0 -21 15 -29 148 -75 81 -28 152 -51 158 -51 7 0
15 12 19 27 5 21 1 31 -19 47 -27 23 -27 22 -42 251 -3 55 -7 118 -9 140 -2
22 -6 94 -11 160 -4 66 -8 131 -9 145 -2 14 -3 31 -4 38 -1 13 -25 14 -84 2z
m-72 -297 c4 -68 3 -123 -2 -123 -13 0 -147 50 -155 58 -6 6 17 36 117 155 16
19 31 35 32 34 0 -1 4 -57 8 -124z"/>
<path d="M6118 13152 c-69 -37 -129 -70 -132 -73 -4 -3 3 -31 15 -62 l21 -56
129 66 c71 36 132 70 135 75 5 8 -23 95 -35 110 -3 4 -63 -23 -133 -60z"/>
<path d="M10924 13165 c-16 -25 -16 -27 10 -53 14 -16 26 -33 26 -39 0 -13
-109 -211 -204 -371 -73 -123 -66 -117 -137 -96 -10 3 -20 -5 -27 -21 -14 -31
-15 -45 -3 -45 9 0 337 -189 425 -245 l57 -36 81 81 81 82 -29 28 -29 29 -59
-39 c-32 -22 -64 -40 -71 -40 -23 0 -195 97 -195 110 0 5 69 130 138 251 46
81 116 195 129 210 13 15 18 15 62 -2 l49 -18 12 30 c15 34 17 30 -35 58 -22
11 -58 32 -80 45 -22 14 -58 34 -80 46 -22 12 -54 31 -72 41 l-32 20 -17 -26z"/>
<path d="M4670 12889 c-39 -33 -314 -229 -428 -304 -47 -31 -69 -52 -64 -59 5
-6 30 -50 56 -98 l47 -87 33 20 34 20 -23 73 c-25 82 -29 71 47 129 20 15 41
27 47 27 13 0 331 -443 331 -461 0 -5 -16 -25 -37 -43 -35 -34 -36 -35 -19
-60 9 -15 19 -26 22 -26 4 0 298 203 313 216 8 7 -22 54 -35 54 -7 0 -30 -10
-50 -22 l-38 -22 -30 38 c-17 21 -93 126 -168 233 -104 148 -135 199 -127 209
6 7 33 27 60 44 l49 32 62 -46 62 -46 28 27 c27 26 28 27 9 47 -81 91 -126
136 -135 136 -6 -1 -27 -14 -46 -31z"/>
<path d="M11825 12458 c-21 -13 -53 -43 -70 -66 -26 -37 -30 -53 -30 -105 0
-54 7 -76 53 -172 60 -123 65 -147 44 -190 -29 -59 -61 -67 -126 -35 -44 22
-99 91 -98 124 0 12 10 43 22 70 l23 48 -31 29 -31 29 -60 -75 -59 -76 26 -47
c56 -101 187 -206 282 -227 91 -20 176 8 222 73 53 75 47 131 -27 287 -54 113
-60 135 -46 177 11 34 54 68 86 68 31 0 86 -33 112 -67 l26 -34 -22 -65 -23
-64 23 -20 c13 -10 29 -19 34 -20 13 0 105 134 105 154 0 27 -140 161 -200
191 -78 40 -179 45 -235 13z"/>
<path d="M3637 12048 c-47 -51 -135 -145 -196 -208 l-111 -114 22 -23 21 -23
34 20 c19 11 36 20 38 20 16 0 405 -376 405 -391 0 -5 -9 -23 -19 -41 -20 -31
-20 -32 1 -50 12 -10 24 -18 27 -18 4 0 61 57 128 128 67 70 160 165 207 212
57 56 84 90 80 100 -14 37 -90 159 -99 159 -5 1 -21 -8 -33 -17 l-24 -19 21
-68 21 -68 -27 -31 c-66 -73 -155 -156 -162 -151 -21 13 -171 159 -171 166 0
5 27 37 59 70 l60 61 34 -26 34 -26 24 26 24 26 -88 84 c-48 46 -91 84 -95 84
-8 0 -42 -37 -42 -46 0 -3 10 -20 23 -37 l23 -32 -60 -63 -61 -64 -88 85 -88
84 78 82 c43 44 84 81 90 81 6 0 32 -9 58 -20 26 -11 48 -20 50 -20 2 0 13 13
25 29 l21 30 -75 50 c-41 28 -77 51 -79 51 -2 0 -42 -42 -90 -92z"/>
<path d="M2983 11280 c-13 -16 -23 -33 -23 -38 0 -6 -3 -12 -7 -14 -5 -1 -17
-16 -29 -33 -11 -16 -41 -60 -67 -97 -26 -38 -47 -70 -47 -73 0 -2 11 -12 25
-21 25 -17 27 -16 59 15 l33 32 129 -87 c137 -92 268 -182 398 -273 78 -54
146 -114 146 -129 0 -5 -28 -14 -61 -21 -70 -14 -119 -53 -119 -94 0 -27 13
-41 51 -56 53 -20 148 48 189 135 28 61 26 128 -6 193 -29 58 -65 88 -313 256
-126 86 -287 199 -304 214 -4 4 -1 25 7 48 14 39 14 40 -12 55 -26 15 -28 14
-49 -12z"/>
<path d="M13193 10529 c-18 -12 -33 -26 -33 -32 0 -7 33 -70 73 -142 156 -279
307 -611 402 -880 9 -27 21 -59 26 -70 8 -20 23 -69 79 -255 27 -90 93 -351
104 -415 3 -16 8 -41 11 -55 16 -72 27 -137 45 -255 27 -173 28 -179 35 -260
4 -38 8 -77 10 -85 27 -107 27 -943 0 -1115 -2 -11 -6 -51 -10 -90 -3 -38 -10
-95 -15 -125 -5 -30 -11 -75 -14 -100 -4 -25 -8 -57 -11 -72 -3 -16 -7 -38 -9
-50 -40 -223 -75 -380 -131 -583 -57 -207 -155 -497 -206 -612 -11 -23 -19
-45 -19 -48 0 -23 -206 -457 -282 -595 -221 -402 -497 -791 -794 -1120 -60
-67 -301 -309 -390 -391 -39 -37 -232 -199 -329 -277 -63 -51 -290 -213 -387
-276 -368 -239 -784 -447 -1178 -589 -158 -57 -419 -137 -575 -176 -127 -31
-446 -95 -530 -106 -74 -9 -116 -15 -150 -20 -16 -3 -55 -7 -85 -10 -30 -4
-68 -8 -85 -10 -28 -4 -123 -10 -315 -20 -168 -10 -482 -5 -695 11 -164 12
-353 32 -441 48 -40 7 -90 16 -124 21 -19 3 -46 8 -60 10 -14 3 -34 7 -45 9
-11 2 -56 12 -100 21 -44 9 -91 19 -105 21 -14 3 -77 18 -140 35 -846 221
-1584 592 -2255 1133 -389 314 -800 757 -1080 1164 -38 56 -77 104 -85 107
-20 8 -80 -26 -80 -46 0 -39 323 -470 489 -653 20 -22 61 -67 91 -100 209
-232 511 -505 785 -710 551 -413 1108 -701 1766 -914 146 -47 471 -133 549
-146 19 -3 58 -10 85 -15 28 -6 64 -13 80 -16 110 -20 196 -35 230 -40 23 -3
50 -7 60 -9 38 -7 170 -22 263 -31 34 -3 89 -8 123 -11 132 -13 507 -18 659
-9 41 2 121 7 177 10 56 3 121 8 145 10 24 3 71 7 106 10 35 2 118 13 185 24
67 11 140 22 162 26 47 6 54 8 160 30 44 9 91 19 105 21 102 19 421 108 595
166 769 255 1500 681 2095 1219 934 844 1569 1950 1829 3184 29 138 68 361 76
440 3 22 7 51 9 65 3 14 8 54 11 90 4 36 8 80 10 98 27 227 27 857 1 1082 -3
19 -7 62 -11 95 -75 720 -292 1440 -631 2090 -81 156 -163 298 -177 307 -17
11 -18 10 -54 -13z"/>
<path d="M2494 10498 c-4 -13 -25 -61 -47 -108 -21 -47 -54 -116 -72 -155 -18
-38 -49 -103 -69 -144 -20 -41 -36 -78 -36 -83 0 -5 12 -14 26 -20 24 -11 28
-9 53 20 l26 32 100 -44 c187 -81 414 -197 410 -209 -2 -7 -6 -26 -9 -44 -4
-28 -1 -33 26 -42 l30 -10 40 87 c22 48 81 170 130 271 l90 185 -34 30 c-19
17 -53 48 -77 69 l-43 37 -19 -24 c-10 -13 -19 -28 -19 -33 0 -6 17 -34 38
-64 21 -30 36 -61 34 -69 -14 -44 -104 -220 -113 -220 -5 0 -17 4 -27 10 -9 5
-57 27 -105 49 -100 46 -98 39 -44 144 31 62 29 62 98 41 17 -5 44 40 34 56
-5 8 -111 61 -191 96 -31 13 -32 13 -44 -17 -7 -16 -11 -31 -9 -33 2 -1 18
-12 35 -24 l31 -22 -38 -80 c-21 -44 -41 -80 -44 -80 -17 0 -205 102 -205 111
0 7 20 54 44 105 l45 94 64 0 c53 0 66 3 70 18 2 9 8 24 12 34 5 12 -1 18 -27
24 -18 4 -35 8 -38 9 -3 1 -23 7 -45 13 -57 17 -73 15 -81 -10z"/>
<path d="M11231 10034 c-157 -33 -512 -164 -731 -271 -266 -130 -484 -258
-805 -473 -104 -70 -225 -146 -267 -168 -109 -58 -250 -106 -373 -129 -70 -13
-284 -11 -366 2 -47 8 -180 42 -295 76 -115 33 -222 64 -239 69 -16 5 -158 45
-315 90 -157 45 -292 84 -300 85 -8 2 -46 13 -85 24 -293 87 -922 260 -1003
276 -9 1 -44 10 -77 19 -59 15 -261 60 -320 70 -16 3 -39 8 -50 10 -178 38
-288 58 -320 58 -122 1 -205 -72 -205 -178 0 -59 41 -115 157 -214 60 -51 119
-102 133 -114 98 -85 467 -372 717 -557 459 -342 750 -568 791 -614 57 -65 87
-131 85 -190 -2 -63 -4 -71 -30 -120 -42 -79 -105 -132 -388 -321 -82 -55
-155 -111 -162 -124 -15 -29 0 -64 34 -79 22 -10 34 -6 107 40 213 136 396
270 448 327 45 50 80 117 103 197 37 126 -4 262 -110 368 -30 30 -305 243
-612 473 -307 231 -613 463 -681 517 -144 115 -454 375 -464 390 -3 6 -1 21 5
34 8 19 18 23 56 24 97 3 146 -2 234 -22 168 -37 758 -187 1042 -264 348 -95
426 -116 445 -121 33 -8 248 -66 475 -129 132 -37 254 -70 270 -75 17 -4 109
-29 205 -54 96 -25 218 -57 270 -71 138 -37 256 -53 367 -49 54 2 105 5 113 7
8 2 42 9 74 16 65 14 166 51 227 81 21 11 182 109 356 218 175 109 379 234
453 277 123 72 473 253 545 282 17 7 64 26 105 43 116 48 308 110 382 125 173
33 289 -22 364 -172 24 -48 29 -70 29 -133 0 -62 -5 -85 -29 -134 -33 -68
-126 -170 -241 -265 -80 -66 -444 -337 -647 -480 -107 -76 -742 -539 -854
-623 -142 -106 -227 -190 -294 -288 -68 -101 -137 -268 -154 -374 -4 -21 -8
-41 -10 -45 -4 -6 -8 -40 -21 -186 -3 -27 -7 -95 -10 -150 -3 -55 -8 -138 -10
-185 -3 -47 -7 -128 -10 -180 -3 -52 -8 -126 -10 -165 -3 -38 -7 -122 -10
-185 -3 -63 -8 -142 -10 -175 -2 -33 -7 -112 -10 -175 -3 -63 -8 -144 -10
-180 -2 -36 -7 -108 -10 -160 -3 -52 -8 -126 -10 -165 -3 -38 -7 -110 -10
-160 -14 -237 -23 -321 -50 -460 -20 -103 -71 -296 -86 -327 -23 -44 -86 -98
-116 -98 -35 0 -113 85 -152 165 -29 61 -64 196 -87 341 -3 20 -8 46 -10 58
-2 11 -7 35 -10 51 -2 17 -16 91 -29 165 -14 74 -27 149 -30 165 -2 17 -7 41
-10 55 -4 22 -19 105 -30 165 -1 11 -13 72 -25 135 -12 63 -24 129 -27 145
-36 223 -121 600 -165 735 -40 123 -67 176 -115 226 -62 64 -123 89 -223 91
-104 3 -177 -20 -353 -108 -150 -75 -269 -122 -396 -154 -141 -36 -220 -44
-376 -40 -172 5 -200 8 -306 35 -46 12 -91 23 -99 25 -8 2 -94 26 -190 55
-179 53 -376 106 -432 115 -17 3 -35 8 -39 10 -4 3 -65 16 -136 30 -70 14
-139 28 -153 30 -99 20 -359 52 -490 59 -129 8 -220 -61 -220 -165 0 -66 24
-99 229 -318 64 -68 127 -135 140 -150 13 -14 96 -101 185 -194 178 -186 243
-268 299 -374 75 -143 98 -253 102 -478 2 -172 12 -214 63 -285 35 -48 59 -68
114 -96 147 -75 384 -69 468 11 56 54 64 94 57 298 -4 100 -9 193 -11 207 -3
14 -7 68 -11 120 -14 213 -46 364 -82 388 -31 19 -80 18 -103 -3 -29 -27 -32
-61 -10 -143 11 -42 33 -169 49 -282 60 -418 58 -470 -15 -505 -69 -32 -250
-8 -323 44 -49 35 -62 86 -65 271 -4 172 -16 250 -59 375 -63 185 -150 308
-385 550 -260 268 -359 375 -455 491 -62 76 -65 82 -45 87 22 6 249 1 318 -7
84 -9 146 -17 160 -21 8 -2 35 -7 60 -10 157 -22 446 -95 750 -190 322 -101
409 -118 625 -119 88 -1 183 2 210 6 217 32 367 80 605 193 85 40 175 80 200
89 138 47 239 14 294 -97 61 -126 128 -380 156 -597 6 -47 13 -96 15 -110 7
-40 13 -83 40 -275 14 -99 30 -202 35 -230 5 -27 12 -66 14 -85 6 -33 8 -49
22 -130 3 -19 8 -44 9 -55 51 -298 110 -536 158 -637 61 -126 133 -208 225
-254 67 -33 157 -21 210 29 77 71 146 272 196 567 12 72 16 99 21 135 13 89
25 183 30 235 3 30 8 71 10 90 25 196 48 658 60 1200 11 433 17 578 31 645 3
11 7 36 10 55 38 238 156 478 318 643 86 88 243 211 347 272 15 8 80 53 234
159 17 12 32 24 35 27 3 3 28 21 55 39 161 109 813 590 900 664 86 73 225 212
278 278 140 175 118 394 -58 573 -65 65 -132 109 -187 121 -51 11 -147 10
-207 -2z"/>
<path d="M2065 9511 c-4 -14 -9 -37 -12 -50 -2 -14 -12 -59 -22 -102 l-18 -77
33 -10 c29 -9 33 -7 38 12 3 11 11 29 19 40 13 17 24 11 197 -100 l184 -119
-54 -12 c-30 -6 -70 -14 -90 -17 -19 -3 -94 -16 -167 -29 l-132 -24 -3 41 c-3
38 -5 41 -33 41 -29 0 -30 -1 -52 -100 -12 -55 -24 -115 -28 -134 -3 -19 -8
-44 -11 -56 -4 -18 0 -24 22 -29 24 -6 33 -2 54 22 15 18 39 32 60 36 31 6 47
-2 178 -90 79 -52 142 -97 140 -100 -3 -2 -72 -15 -154 -29 -82 -14 -160 -28
-174 -30 -104 -19 -98 -20 -102 16 -3 30 -6 34 -33 34 -32 0 -34 -7 -70 -185
-2 -14 -7 -38 -11 -55 -3 -16 -8 -37 -10 -46 -3 -12 4 -19 23 -24 23 -5 32 -1
53 24 16 19 38 32 60 36 19 3 46 8 60 10 38 8 70 14 130 25 53 10 84 16 125
24 11 3 92 18 179 35 88 17 161 32 162 34 1 1 4 17 6 34 3 32 -2 36 -182 164
-102 72 -192 135 -200 139 -8 5 -12 11 -9 14 3 3 110 26 239 52 129 25 238 49
242 52 3 4 8 20 10 36 3 27 -12 39 -282 232 -270 193 -285 206 -294 243 -8 32
-14 40 -37 43 -23 4 -29 0 -34 -21z"/>
<path d="M2091 7828 c-72 -11 -126 -37 -183 -87 -82 -73 -120 -166 -119 -292
1 -159 81 -288 219 -356 51 -25 67 -28 162 -28 93 0 112 3 162 27 131 61 200
177 213 358 5 79 -45 197 -115 269 -89 92 -205 129 -339 109z m238 -209 c138
-42 162 -205 43 -293 -112 -82 -316 -94 -427 -26 -43 26 -74 86 -75 140 0 48
43 112 94 142 91 52 261 70 365 37z"/>
<path d="M2205 6562 c-27 -10 -64 -26 -81 -35 -41 -21 -102 -90 -124 -141 -24
-54 -37 -158 -28 -226 7 -53 92 -418 99 -425 2 -2 16 -1 32 2 24 5 27 10 27
43 0 21 6 42 13 48 13 11 425 116 499 127 43 6 44 6 61 -30 16 -33 21 -36 45
-30 15 4 29 8 31 10 2 3 -11 66 -30 142 -18 76 -34 143 -35 149 -1 6 -9 38
-19 70 -39 134 -109 225 -211 275 -85 42 -200 50 -279 21z m312 -176 c61 -35
97 -104 110 -209 5 -43 4 -43 -130 -78 -45 -11 -89 -23 -97 -25 -179 -46 -306
-71 -312 -61 -28 43 -36 132 -18 197 37 137 318 248 447 176z"/>
</g>
</svg>
